<?xml version="1.0" standalone="no"?><svg version="1.0" xmlns="http://www.w3.org/2000/svg" width="32" height="32" viewBox="0 0 32 32"><defs><linearGradient id="p-grad" x1="0%" y1="0%" x2="100%" y2="100%"><stop offset="0%" stop-color="#a855f7" /><stop offset="100%" stop-color="#22D3EE" /></linearGradient></defs><g transform="translate(-8.0,40) scale(0.15,-0.15)" fill="url(#p-grad)" stroke="none"><path d="M111 237 c-5 -14 -19 -27 -31 -30 -19 -5 -20 -8 -8 -26 10 -17 10 -25 0 -41 -11 -18 -10 -21 11 -29 14 -5 27 -19 30 -31 5 -19 8 -20 26 -8 17 10 25 10 42 0 18 -12 21 -11 26 8 3 12 16 26 30 31 21 8 22 11 11 29 -10 16 -10 24 0 41 12 18 11 21 -8 26 -12 3 -26 16 -31 30 -8 21 -11 22 -29 11 -16 -10 -24 -10 -40 0 -18 11 -21 10 -29 -11z m93 -33 c20 -20 20 -68 0 -88 -20 -20 -68 -20 -88 0 -9 8 -16 28 -16 44 0 36 24 60 60 60 16 0 36 -7 44 -16z"/><path d="M124 169 c-3 -6 -2 -15 3 -20 5 -5 9 -1 9 11 0 23 -2 24 -12 9z"/><path d="M156 165 c-9 -26 -7 -32 5 -12 6 10 9 21 6 23 -2 3 -7 -2 -11 -11z"/><path d="M184 160 c0 -13 4 -16 10 -10 7 7 7 13 0 20 -6 6 -10 3 -10 -10z"/></g></svg>
